<svg width="23" height="23" viewBox="0 0 23 23" fill="none" xmlns="http://www.w3.org/2000/svg">
<path d="M11.8667 5.94753C8.74154 5.94753 6.22078 8.42891 6.22078 11.5052C6.22078 14.5816 8.74154 17.0629 11.8667 17.0629C14.9919 17.0629 17.5126 14.5816 17.5126 11.5052C17.5126 8.42891 14.9919 5.94753 11.8667 5.94753ZM11.8667 15.1185C9.84714 15.1185 8.19611 13.4981 8.19611 11.5052C8.19611 9.5124 9.84223 7.89201 11.8667 7.89201C13.8912 7.89201 15.5373 9.5124 15.5373 11.5052C15.5373 13.4981 13.8863 15.1185 11.8667 15.1185ZM19.0605 5.7202C19.0605 6.44091 18.4708 7.01651 17.7436 7.01651C17.0114 7.01651 16.4267 6.43607 16.4267 5.7202C16.4267 5.00432 17.0163 4.42388 17.7436 4.42388C18.4708 4.42388 19.0605 5.00432 19.0605 5.7202ZM22.7998 7.03586C22.7163 5.29938 22.3134 3.76121 21.021 2.49392C19.7336 1.22663 18.1711 0.829997 16.407 0.742931C14.5889 0.641354 9.13956 0.641354 7.32146 0.742931C5.56233 0.82516 3.99975 1.22179 2.70743 2.48908C1.41511 3.75638 1.0171 5.29454 0.928649 7.03102C0.82546 8.82071 0.82546 14.1849 0.928649 15.9746C1.01218 17.7111 1.41511 19.2493 2.70743 20.5166C3.99975 21.7838 5.55742 22.1805 7.32146 22.2675C9.13956 22.3691 14.5889 22.3691 16.407 22.2675C18.1711 22.1853 19.7336 21.7887 21.021 20.5166C22.3085 19.2493 22.7114 17.7111 22.7998 15.9746C22.903 14.1849 22.903 8.82555 22.7998 7.03586ZM20.4511 17.8949C20.0678 18.843 19.3258 19.5733 18.3578 19.9555C16.9082 20.5214 13.4686 20.3908 11.8667 20.3908C10.2648 20.3908 6.82026 20.5166 5.37561 19.9555C4.41251 19.5782 3.67053 18.8478 3.28234 17.8949C2.70743 16.468 2.84011 13.0821 2.84011 11.5052C2.84011 9.92838 2.71235 6.53765 3.28234 5.11557C3.66562 4.16752 4.4076 3.43714 5.37561 3.05501C6.82517 2.48908 10.2648 2.61968 11.8667 2.61968C13.4686 2.61968 16.9131 2.49392 18.3578 3.05501C19.3209 3.4323 20.0629 4.16268 20.4511 5.11557C21.026 6.54248 20.8933 9.92838 20.8933 11.5052C20.8933 13.0821 21.026 16.4728 20.4511 17.8949Z" fill="white"/>
</svg>
