<svg width="23" height="22" viewBox="0 0 23 22" fill="none" xmlns="http://www.w3.org/2000/svg">
<path d="M5.19447 21.1413V7.21695H0.474866L0.474866 21.1413H5.19447ZM2.83528 5.31468C4.48109 5.31468 5.50552 4.24545 5.50552 2.90927C5.47486 1.54297 4.48115 0.503418 2.86651 0.503418C1.25212 0.503418 0.196411 1.54299 0.196411 2.90927C0.196411 4.24551 1.2206 5.31468 2.80447 5.31468H2.83513H2.83528ZM7.80675 21.1413H12.5264V13.3653C12.5264 12.9491 12.557 12.5334 12.6817 12.2359C13.0228 11.4044 13.7994 10.5432 15.1032 10.5432C16.811 10.5432 17.4942 11.8201 17.4942 13.692V21.1412H22.2135V13.1571C22.2135 8.88009 19.8851 6.89005 16.7799 6.89005C14.2339 6.89005 13.116 8.28562 12.495 9.23614H12.5265V7.21666H7.80686C7.8688 8.52324 7.80686 21.141 7.80686 21.141L7.80675 21.1413Z" fill="white"/>
</svg>
