<svg width="26" height="21" viewBox="0 0 26 21" fill="none" xmlns="http://www.w3.org/2000/svg">
<path d="M25.5513 3.22437C24.6239 3.61576 23.6403 3.87267 22.633 3.98655C23.6822 3.3875 24.4877 2.43887 24.8671 1.30859C23.8697 1.87242 22.7785 2.26968 21.6407 2.4832C20.7138 1.54249 19.3934 0.95459 17.932 0.95459C15.1259 0.95459 12.8509 3.12188 12.8509 5.79497C12.8509 6.1744 12.8959 6.54379 12.9825 6.89815C8.75977 6.69623 5.01594 4.7692 2.50989 1.84064C2.07263 2.55555 1.82207 3.38713 1.82207 4.2741C1.82207 5.95349 2.71914 7.435 4.0824 8.30308C3.27554 8.27901 2.48643 8.07139 1.78096 7.69757C1.78067 7.71785 1.78067 7.73812 1.78067 7.75849C1.78067 10.1038 3.53204 12.0602 5.85632 12.5049C5.10812 12.6987 4.32331 12.7271 3.56184 12.5878C4.20835 14.5109 6.08482 15.9103 8.30809 15.9494C6.56919 17.2476 4.37832 18.0215 1.99794 18.0215C1.58777 18.0215 1.18339 17.9986 0.785889 17.9539C3.03441 19.3273 5.70511 20.1286 8.57442 20.1286C17.9202 20.1286 23.0306 12.7528 23.0306 6.35633C23.0306 6.14638 23.0258 5.93764 23.0159 5.73009C24.0107 5.04503 24.8692 4.19651 25.5513 3.22437Z" fill="white"/>
</svg>
